<?xml version="1.0" standalone="no"?>
<!DOCTYPE svg PUBLIC "-//W3C//DTD SVG 20010904//EN"
 "http://www.w3.org/TR/2001/REC-SVG-20010904/DTD/svg10.dtd">
<svg version="1.0" xmlns="http://www.w3.org/2000/svg"
 width="48.000000pt" height="48.000000pt" viewBox="0 0 48.000000 48.000000"
 preserveAspectRatio="xMidYMid meet">

<g transform="translate(0.000000,48.000000) scale(0.100000,-0.100000)"
fill="#000000" stroke="none">
<path d="M0 473 c0 -4 51 -58 112 -120 l113 -113 -115 -115 c-63 -63 -111
-118 -107 -122 4 -4 59 44 122 107 l115 115 115 -115 c63 -63 118 -111 122
-107 4 4 -44 59 -107 122 l-115 115 115 115 c63 63 111 118 107 122 -4 4 -59
-44 -122 -107 l-115 -115 -113 113 c-105 105 -127 123 -127 105z"/>
</g>
</svg>
