<svg xmlns="http://www.w3.org/2000/svg" width="100" height="100">
  <path
    d="M2.475 12.5A2.475 2.467 0 0 0 0 14.967v70.066A2.475 2.467 0 0 0 2.475 87.5h95.05A2.475 2.467 0 0 0 100 85.033V14.967a2.475 2.467 0 0 0-2.475-2.467Zm2.475 4.934h.573c-.122 1.102-.296 2.12-.573 2.887zm3.067 0h8.784c-.825 3.029-1.62 6.069-2.004 8.068-1.013 5.281-1.032 9.217-1.502 12.677-.47 3.46-1.454 6.527-1.367 9.053a7.071 7.071 0 0 0 .632 2.687c.238.543.234.514.222.559-.086.326-.171.477-.205.532.038.016.026.028-.011.025l-.004.008c-.01-.004.003-.009-.045-.01.044.001.03 0 .049.002l.011-.025c-.028-.012-.052-.019-.102-.054a3.54 3.54 0 0 1-.553-.515c-.386-.437-.68-1.137-.656-.996-.049-.297-.5-3.379-1.131-6.638-.63-3.26-1.321-6.64-2.41-8.517-.856-1.478-2.04-2.032-2.775-2.246v-5.923c.544-1.447 1.224-2.854 1.818-3.85.864-1.45 1.098-3.165 1.25-4.837zm11.356 0h.412c-.612 2.223-.994 4.831-1.286 7.498-.446 4.06-.645 8.187-.86 10.782-.214 2.57-.476 3.083-.598 4.236-.123 1.154-.039 2.56.435 6.573.484 4.108 2.046 12.521 3.885 20.32.92 3.9 1.906 7.635 2.871 10.594.483 1.48.957 2.762 1.431 3.799.23.501.443.94.681 1.33h-2.388c-.75-4.466-1.508-8.785-2.914-11.335-1.263-2.291-2.083-3.267-2.948-3.844-.864-.576-1.258-.554-2.148-1.312-1.232-1.05-2.946-1.916-4.46-2.812-1.512-.897-2.734-1.918-2.921-2.334-.18-.402-.174-.546-.174-.538 0 .007-.03.052.077-.126a4.365 4.365 0 0 0 .578-2.854c-.387-2.735-2.142-7.636-4.094-10.196l-.002-.002V34.66c.168.146.35.374.633.862.569.981 1.504 4.559 2.121 7.75.617 3.192 1.033 6.053 1.12 6.575.159.96.653 1.559 1.237 2.222.293.332.615.64.983.9s.778.515 1.412.53c.691.017 1.452-.266 1.914-.763.461-.497.654-1.059.804-1.629.243-.917-.132-1.69-.346-2.178-.214-.488-.397-.911-.427-1.783-.06-1.713.845-4.947 1.346-8.636.5-3.689.51-7.484 1.481-12.546.385-2.003 1.254-5.29 2.145-8.53zm3 0h4.588c-.392.34-.733.708-1.025 1.157-.642.988-1.067 2.175-1.916 4.294-1.811 4.52-3.808 13.753-3.533 20.539.274 6.787 2.956 12.314 4.64 18.139.834 2.881 1.548 6.679 2.42 10.12.872 3.442 1.756 6.537 3.676 8.292.856.783 1.72 1.211 2.558 1.28.84.07 1.518-.222 1.955-.434.418-.201.625-.27.604-.275-.022-.029 0-.012.029-.014l-.03.014c.017.021.047.054.173.208.262.322.372.96.385 1.812h-6.948a7.952 7.952 0 0 1-1.11-.806c-.07-.058-.511-.648-.923-1.548-.412-.9-.866-2.114-1.33-3.538-.929-2.848-1.906-6.535-2.816-10.393-1.82-7.716-3.377-16.164-3.835-20.045-.469-3.977-.52-5.214-.433-6.025.087-.812.379-1.587.604-4.295.222-2.683.42-6.756.854-10.714.316-2.875.792-5.696 1.414-7.768zm19.236 0h15.857c-1.85.428-3.721.927-5.52 1.455-2.963.87-5.717 1.795-7.776 2.5-1.03.353-1.888.65-2.5.856-.307.103-.555.182-.718.231l-.054.016c.013-.004.037 0-.11-.045-.213-.064-.517-.165-.877-.281-.719-.233-1.667-.528-2.726-.744-2.119-.431-4.798-.6-6.97.973-2.159 1.565-3.163 4.274-3.828 7.169-.666 2.894-.96 6.069-1.304 8.73-.739 5.71.877 10.61 2.176 16.623.674 3.122 2.074 8.052 3.395 12.249.661 2.098 1.301 4.007 1.826 5.416.262.704.493 1.28.702 1.723.104.222.198.405.325.597.063.096.13.194.265.324s.363.386.93.386c.42 0 .516-.067.737-.122.22-.055.47-.122.754-.19.568-.137 1.27-.277 1.995-.32 1.453-.087 2.85.146 3.878 1.472.385.497.628 1.497.607 2.85-.015.965-.168 2.096-.358 3.264H39.43c.013-1.215-.189-2.373-.996-3.366-.58-.713-1.433-1.176-2.208-1.13-.776.044-1.232.37-1.567.531-.334.161-.5.21-.675.195-.175-.015-.494-.095-1.088-.638-.981-.897-2.106-3.747-2.95-7.078-.843-3.33-1.551-7.13-2.44-10.202-1.759-6.08-4.296-11.37-4.546-17.555-.25-6.186 1.759-15.536 3.357-19.524.855-2.135 1.304-3.26 1.698-3.867.394-.606.747-.867 1.885-1.538.987-.581.972-.45 2.124-.304 1.15.146 3.065.366 6.59-.081.876-.112 1.903-.323 2.995-.575zm29.87 0h9.35c.938.956 1.833 1.988 2.803 3.082 3.424 3.86 4.84 7.007 6.29 12.777 1.377 5.485.961 15.195.784 20.97-.081 2.652-.905 5.26-1.497 7.595-.295 1.167-.54 2.267-.549 3.344-.01 1.077.264 2.21 1.072 3.058.671.706 1.44 1.169 2.245 1.332.803.164 1.58.02 2.233-.239.298-.118.574-.262.84-.414v1.037c-1.444 1.172-2.694 2.115-3.491 2.496l-.03.015-.034.018c-1.242.684-2.152 1.052-2.711 1.18-.56.127-.647.042-.667.028-.02-.014-.155-.158-.279-.617-.124-.459-.218-1.15-.324-1.962l-.002-.002v-.004c-.222-1.629.063-4.724.35-8.237s.551-7.5.139-11.278c-.797-7.29-2.186-17.738-5.983-23.933-1.77-2.885-3.183-5.175-5.16-7.021-1.43-1.336-3.146-2.388-5.38-3.225Zm12.703 0h3.31c2.786 3.525 4.785 7.581 5.713 10.757 1.155 3.954.032 6.254.286 9.751.238 3.279.925 6.098.998 8.841.03 1.132-.453 3-.805 4.713-.175.856-.32 1.68-.29 2.494.03.814.311 1.812 1.195 2.342.162.096.314.165.46.215v9.356c-.645.499-1.264.963-1.755 1.159-.34.134-.583.162-.822.113-.24-.048-.534-.18-.944-.61-.274-.289-.399-.644-.392-1.34.006-.696.193-1.655.473-2.762.562-2.215 1.476-5.026 1.57-8.124.176-5.725.71-15.416-.856-21.645-1.494-5.945-3.182-9.693-6.836-13.812-.432-.487-.868-.968-1.305-1.448zm6.412 0h4.456v8.452c-.963-2.676-2.47-5.647-4.456-8.452Zm-25.362 1.303c1.14-.036 2.116.033 2.837.216 3.427.872 5.444 1.964 7.097 3.508 1.654 1.544 2.977 3.63 4.74 6.507 3.267 5.329 4.845 15.698 5.633 22.911.38 3.475.14 7.33-.145 10.811-.284 3.482-.639 6.533-.334 8.77.105.802.194 1.56.388 2.278.195.72.514 1.481 1.246 1.993.73.512 1.69.573 2.64.357.936-.214 1.989-.678 3.314-1.405.741-.356 1.546-.875 2.402-1.5v3.681c-.524.491-1.003.938-1.358 1.257-.395.355-.742.617-.692.586-.532.33-2.062 1.144-3.613 1.725-1.55.581-3.216.782-3.61.634-.563-.211-.945-.343-1.114-.422-.169-.079-.098-.03-.141-.092-.085-.127-.393-1.051-1.038-3.102-.492-1.562-.336-5.002-.091-8.744.244-3.743.513-7.857-.196-11.368-1.361-6.744-4.783-14.54-7.545-18.579-1.378-2.014-2.605-3.051-3.636-3.766-1.03-.715-1.738-1.075-2.527-1.98-.577-.66-.45-1.5-.84-3.002-.39-1.502-1.613-3.204-4.596-4.376-.85-.333-1.801-.529-2.83-.613a15.212 15.212 0 0 0-1.187-.048c-2.841-.008-6.15.69-9.473 1.633-5.065 1.438-10.033 3.558-12.91 5.497-2.649 1.785-4.047 2.578-5.082 3.882-1.035 1.304-1.4 2.799-2.137 5.63-.85 3.27-.258 7.82.74 12.28 1 4.46 2.446 8.728 3.686 11.211 1.177 2.357 2.03 3.76 3.03 4.728 1.002.968 2.137 1.358 3.32 1.633 1.055.244 2.015-.25 2.652-.787.638-.536 1.129-1.17 1.588-1.719.459-.548.897-1 1.154-1.162.258-.163.106-.169.314-.048.031.018.322.385.471 1.281.15.897.183 2.165.159 3.566-.047 2.801-.312 6.114.1 8.783.057.365.08.767.09 1.184h-2.913c.17-1.1.307-2.19.323-3.225.026-1.621-.177-3.176-1.125-4.398-1.64-2.113-4.093-2.54-5.983-2.427a13.93 13.93 0 0 0-2.427.386c-.124.03-.195.05-.302.077a22.025 22.025 0 0 1-.51-1.257c-.5-1.34-1.133-3.223-1.785-5.295-1.305-4.143-2.7-9.073-3.338-12.029-1.327-6.143-2.795-10.719-2.139-15.79.353-2.727.649-5.832 1.26-8.493.613-2.662 1.576-4.787 2.87-5.725 1.282-.928 3.203-.921 5.02-.551.91.185 1.764.449 2.457.673.346.112.65.215.92.297.27.081.413.17.88.17.275 0 .325-.033.422-.057.097-.023.19-.05.297-.083.215-.064.477-.15.795-.256.636-.214 1.49-.511 2.514-.862 2.047-.7 4.767-1.613 7.671-2.467 2.905-.853 5.997-1.645 8.76-2.108 1.382-.232 2.687-.373 3.827-.409zm-5.507 8.797c1.433-.04 2.623.085 3.419.397 2.536.996 2.864 1.752 3.11 2.698.245.946.093 2.543 1.367 4.004 1.061 1.217 2.089 1.767 2.982 2.386.892.619 1.778 1.337 3.005 3.13 2.446 3.576 5.89 11.373 7.162 17.676.608 3.012.397 6.987.153 10.719-.244 3.731-.586 7.15.2 9.645.631 2.007.767 2.88 1.343 3.737.172.254.403.462.646.64H77.57c.422-1.994-.019-4.406-.81-7.107-.932-3.178-2.454-6.717-4.214-10.045-1.76-3.329-3.753-6.438-5.672-8.743-.96-1.153-1.895-2.107-2.829-2.8-.817-.607-1.654-1.071-2.6-1.107a3.125 3.125 0 0 0-.413.011c-.937.089-1.67.604-2.342 1.269-.671.665-1.291 1.533-1.871 2.579-1.16 2.09-2.15 4.9-2.667 8.14-1.471 9.2.243 13.486 2.564 17.803h-6.494a12.413 12.413 0 0 0-.127-1.56c-.337-2.179-.12-5.456-.072-8.365.025-1.454.007-2.82-.191-4.01-.199-1.191-.554-2.366-1.671-3.013-.941-.545-2.14-.37-2.88.096-.739.466-1.248 1.09-1.732 1.668-.484.578-.935 1.12-1.284 1.414-.349.294-.42.285-.493.268-1.07-.248-1.54-.4-2.158-.998-.619-.599-1.403-1.789-2.537-4.06-1.071-2.143-2.527-6.363-3.487-10.648-.96-4.286-1.381-8.736-.76-11.124.735-2.827 1.06-3.935 1.682-4.718.622-.783 1.844-1.561 4.527-3.37 2.455-1.653 7.354-3.788 12.203-5.165 3.03-.86 6.094-1.381 8.483-1.447zm-14.28 9.213a4.427 4.427 0 0 0-.896.006c-.6.062-1.2.231-1.8.453-1.2.443-2.407 1.15-3.464 2.03-1.057.878-1.972 1.922-2.504 3.131-.533 1.21-.623 2.702.14 3.965.682 1.126 1.717 1.844 2.799 1.978 1.082.133 2.07-.23 2.922-.729 1.703-.997 3.021-2.581 3.715-3.812.472-.84 1.357-1.819 1.862-3.028.253-.605.423-1.406.077-2.192-.345-.785-1.082-1.287-1.964-1.603a3.685 3.685 0 0 0-.886-.199zm-.223 2.479c.118.006.21.02.27.042.487.175.537.286.526.264a1.1 1.1 0 0 1-.085.26c-.236.567-1.08 1.61-1.734 2.77-.433.768-1.686 2.233-2.81 2.891-.562.33-1.051.445-1.363.407-.313-.039-.587-.145-.985-.802-.314-.519-.305-.994.006-1.7.31-.706.982-1.528 1.824-2.228.842-.7 1.847-1.282 2.736-1.61.666-.245 1.259-.312 1.615-.294zM4.95 52.57c.807 1.977 1.49 4.094 1.644 5.185.13.91.045.755-.243 1.23-.145.237-.39.678-.43 1.231-.039.553.109 1.105.385 1.72.727 1.617 2.322 2.503 3.916 3.448 1.594.944 3.277 1.85 4.115 2.565 1.18 1.006 1.968 1.213 2.38 1.488.413.275.965.822 2.155 2.98.938 1.702 1.826 5.853 2.568 10.148h-1.495c-1.617-4.397-3.282-8.082-5.4-10.464-1.758-1.979-3.25-2.508-4.253-2.668-1.004-.16-1.144.039-2.143-1.017-.774-.818-1.462-3.151-2.218-5.6-.28-.906-.589-1.842-.98-2.735Zm56.314 2.662c.106-.01.614.106 1.302.617.688.51 1.526 1.34 2.403 2.396 1.756 2.11 3.692 5.109 5.388 8.316 1.696 3.208 3.16 6.635 4.026 9.59.844 2.877 1.002 5.328.619 6.414H59.51c-2.604-4.61-4.447-7.824-2.914-17.415.475-2.972 1.397-5.547 2.388-7.333.496-.894 1.012-1.59 1.45-2.024.44-.435.792-.557.83-.561zM4.95 67.893c.355.822.796 1.579 1.399 2.216 1.371 1.45 2.782 1.639 3.554 1.762.772.122 1.28.167 2.79 1.867 1.58 1.778 3.053 4.923 4.55 8.828h-3.631c-1.125-2.395-2.405-4.509-3.937-5.867-1.64-1.453-3.308-1.997-4.725-2.217Zm0 9.072c.966.186 1.958.582 3.08 1.576.875.777 1.847 2.256 2.774 4.025H4.95Zm90.1 3.257v2.344h-4.355c1.563-.621 2.929-1.339 3.612-1.762.267-.165.49-.356.743-.582z"
    fill="#7a53a0" />
</svg>