<svg xmlns="http://www.w3.org/2000/svg" width="100" height="100">
   <path
      d="M41.979 0C29.724.005 19.283 4.451 17.322 10.5h49.356C64.716 4.447 54.263 0 42 0ZM17.322 14.5c1.752 5.405 10.335 9.61 21.178 10.377V100h7v-2.828c5.832-.264 9.863-.495 11.822-2.14 1.96-1.647 5.939-2.275 8.998-2.198v5.486c0 .928.752 1.68 1.68 1.68h7.71v-1.68h14.9V100h7.71a1.68 1.68 0 0 0 1.68-1.68v-6.693h-1.68v-30.04H100V53.68A1.68 1.68 0 0 0 98.32 52H68a1.68 1.68 0 0 0-1.68 1.68v7.908H68v27.238c-7.951.135-10.084.933-12.951 2.914-2.867 1.981-4.684 1.31-9.549 1.469V24.877c10.843-.767 19.426-4.972 21.178-10.377ZM72.4 58.08h21.52v35.84H72.4Zm2.628 3.473v13.56h16.32v-13.56Zm8.16 16.67a5.4 5.4 0 1 0 0 10.801 5.4 5.4 0 0 0 0-10.801z"
      style="color:#000;font-style:normal;font-variant:normal;font-weight:400;font-stretch:normal;font-size:medium;line-height:normal;font-family:sans-serif;font-variant-ligatures:normal;font-variant-position:normal;font-variant-caps:normal;font-variant-numeric:normal;font-variant-alternates:normal;font-variant-east-asian:normal;font-feature-settings:normal;font-variation-settings:normal;text-indent:0;text-align:start;text-decoration:none;text-decoration-line:none;text-decoration-style:solid;text-decoration-color:#000;letter-spacing:normal;word-spacing:normal;text-transform:none;writing-mode:lr-tb;direction:ltr;text-orientation:mixed;dominant-baseline:auto;baseline-shift:baseline;text-anchor:start;white-space:normal;shape-padding:0;shape-margin:0;inline-size:0;clip-rule:nonzero;display:inline;overflow:visible;visibility:visible;opacity:1;isolation:auto;mix-blend-mode:normal;color-interpolation:sRGB;color-interpolation-filters:linearRGB;solid-color:#000;solid-opacity:1;vector-effect:none;fill:#369;fill-opacity:1;fill-rule:nonzero;stroke:none;stroke-width:3.36;stroke-linecap:round;stroke-linejoin:round;stroke-miterlimit:4;stroke-dasharray:none;stroke-dashoffset:0;stroke-opacity:1;color-rendering:auto;image-rendering:auto;shape-rendering:auto;text-rendering:auto;enable-background:accumulate;stop-color:#000;stop-opacity:1" />
</svg>