<svg xmlns="http://www.w3.org/2000/svg" width="100" height="100">
  <path
    d="M2.5 12.5A2.5 2.5 0 0 0 0 15v70a2.5 2.5 0 0 0 2.5 2.5h95A2.5 2.5 0 0 0 100 85V15a2.5 2.5 0 0 0-2.5-2.5h-95zm2.5 5h45.32l-.033 5.709-16.68 27.607L5 64.092V17.5zm48.322 0H95v19.246l-25.982 8.397-15.729-21.99.033-5.653zm-1.431 8.857 14.785 20.668-5.862 11.106-9.933 1.396-14.147-8.084 15.157-25.086zM95 39.898V82.5h-7.232L63.637 59.213l5.84-11.067L95 39.898zM34.584 53.67l14.574 8.328L50.967 82.5H5V67.398L34.584 53.67zm26.686 7.426L83.447 82.5H53.98L52.2 62.371l9.069-1.275z"
    fill="#7a53a0" />
  <path
    d="M61.366 68.73a5 5 0 0 0-5 5 5 5 0 0 0 5 5 5 5 0 0 0 5-5 5 5 0 0 0-5-5zM33.236 58.36a11 10.9 0 0 0-11 10.9 11 10.9 0 0 0 11 10.898 11 10.9 0 0 0 11-10.898 11 10.9 0 0 0-11-10.9zM83.191 48.092a10 9.908 0 0 0-10 9.908 10 9.908 0 0 0 10 9.909 10 9.908 0 0 0 10-9.909 10 9.908 0 0 0-10-9.908zM75.515 20.811a7.5 7.431 0 0 0-7.49 7.43 7.5 7.431 0 0 0 7.5 7.431 7.5 7.431 0 0 0 7.5-7.431 7.5 7.431 0 0 0-7.5-7.43 7.5 7.431 0 0 0-.01 0zM53.272 40.664a5 5 0 0 0-5 5 5 5 0 0 0 5 5 5 5 0 0 0 5-5 5 5 0 0 0-5-5zM21.158 21.257a13.5 13.376 0 0 0-13.5 13.377 13.5 13.376 0 0 0 13.5 13.377 13.5 13.376 0 0 0 13.5-13.377 13.5 13.376 0 0 0-13.5-13.377z"
    fill="#7a53a0" />
</svg>